<svg width="32" height="33" viewBox="0 0 32 33" fill="none" xmlns="http://www.w3.org/2000/svg">
<path d="M16 21.6309C18.7614 21.6309 21 19.325 21 16.4807C21 13.6363 18.7614 11.3304 16 11.3304C13.2386 11.3304 11 13.6363 11 16.4807C11 19.325 13.2386 21.6309 16 21.6309Z" stroke="black" stroke-width="2" stroke-miterlimit="10"/>
<path d="M21.5 4.63519H10.5C7.18629 4.63519 4.5 7.40219 4.5 10.8155V22.1459C4.5 25.5592 7.18629 28.3262 10.5 28.3262H21.5C24.8137 28.3262 27.5 25.5592 27.5 22.1459V10.8155C27.5 7.40219 24.8137 4.63519 21.5 4.63519Z" stroke="black" stroke-width="2" stroke-linecap="round" stroke-linejoin="round"/>
<path d="M22.5 11.3305C23.3284 11.3305 24 10.6387 24 9.78542C24 8.93211 23.3284 8.24036 22.5 8.24036C21.6716 8.24036 21 8.93211 21 9.78542C21 10.6387 21.6716 11.3305 22.5 11.3305Z" fill="black"/>
</svg>
