<svg width="32" height="33" viewBox="0 0 32 33" fill="none" xmlns="http://www.w3.org/2000/svg">
<path d="M16 11.3305C16 8.49787 18.3125 6.14165 21.0625 6.18028C22.0256 6.19173 22.9649 6.48944 23.7676 7.03763C24.5704 7.58581 25.2023 8.36114 25.5875 9.27041H30L25.9625 13.4292C25.7019 17.6068 23.9066 21.5253 20.9415 24.3882C17.9764 27.251 14.0641 28.8433 10 28.8412C6 28.8412 5 27.2962 5 27.2962C5 27.2962 9 25.7511 11 22.661C11 22.661 3 18.5408 5 7.21032C5 7.21032 10 12.3605 16 13.3906V11.3305Z" stroke="black" stroke-width="2" stroke-linecap="round" stroke-linejoin="round"/>
</svg>
